<svg width="32" height="32" xmlns="http://www.w3.org/2000/svg">
 <g>
  <title>Layer 1</title>
  <path id="staff-career-icon-tank" d="m24.659,6.601c1.408,-1.117 2.822,-2.239 4.236,-3.36c0.008,0.007 0.017,0.015 0.026,0.022c-1.122,1.413 -2.243,2.826 -3.362,4.237c-0.307,-0.306 -0.597,-0.597 -0.9,-0.899zm1.515,2.993c-0.107,1.646 -0.202,3.293 -0.298,4.939c-0.09,1.543 -0.176,3.087 -0.266,4.631c-0.083,1.407 -0.167,2.815 -0.256,4.223c-0.003,0.053 -0.05,0.118 -0.095,0.154c-1.427,1.135 -2.855,2.268 -4.284,3.401c-1.752,1.389 -3.505,2.777 -5.254,4.168c-0.083,0.067 -0.132,0.064 -0.214,0.001c-3.228,-2.522 -6.459,-5.04 -9.687,-7.563c-0.054,-0.042 -0.101,-0.125 -0.106,-0.192c-0.077,-1.107 -0.146,-2.215 -0.218,-3.323c-0.069,-1.052 -0.14,-2.104 -0.208,-3.156c-0.054,-0.837 -0.103,-1.674 -0.157,-2.511c-0.067,-1.042 -0.136,-2.085 -0.203,-3.128c-0.039,-0.584 -0.073,-1.169 -0.116,-1.753c-0.008,-0.097 0.047,-0.118 0.113,-0.147c1.126,-0.496 2.252,-0.996 3.381,-1.488c0.113,-0.049 0.151,-0.107 0.149,-0.228c-0.007,-0.478 -0.003,-0.956 -0.003,-1.434c0,-0.05 0,-0.1 0,-0.167c0.073,0 0.128,0 0.183,0c1.013,0 2.026,-0.003 3.038,0.002c0.139,0.001 0.251,-0.036 0.365,-0.111c1.137,-0.753 2.278,-1.501 3.415,-2.254c0.095,-0.063 0.16,-0.067 0.258,-0.002c1.136,0.763 2.275,1.522 3.417,2.277c0.079,0.052 0.189,0.083 0.284,0.084c0.947,0.006 1.895,0.006 2.842,0.001c0.122,-0.001 0.16,0.03 0.158,0.156c-0.007,0.487 0.001,0.974 -0.006,1.462c-0.001,0.113 0.037,0.163 0.139,0.206c1.147,0.484 2.292,0.975 3.44,1.458c0.142,0.06 0.2,0.123 0.189,0.294zm-1.598,0.696c-1.046,-0.422 -2.089,-0.852 -3.135,-1.275c-0.099,-0.04 -0.133,-0.09 -0.131,-0.196c0.007,-0.356 0.003,-0.712 0.003,-1.068c0,-0.264 0,-0.264 -0.271,-0.264c-0.704,0 -1.407,0.002 -2.11,-0.003c-0.078,-0.001 -0.168,-0.028 -0.233,-0.071c-0.997,-0.658 -1.992,-1.321 -2.984,-1.986c-0.095,-0.064 -0.159,-0.072 -0.26,-0.005c-0.999,0.664 -2.001,1.323 -3.007,1.977c-0.08,0.052 -0.189,0.083 -0.285,0.084c-0.811,0.007 -1.622,0.007 -2.433,0.001c-0.136,-0.001 -0.187,0.025 -0.182,0.175c0.012,0.384 -0.001,0.769 0.006,1.153c0.002,0.109 -0.029,0.162 -0.134,0.206c-1.002,0.421 -1.999,0.85 -3.001,1.271c-0.135,0.056 -0.197,0.118 -0.171,0.276c0.029,0.184 0.024,0.374 0.034,0.561c0.001,0 0.002,0 0.002,0c0.049,0.884 0.098,1.768 0.148,2.652c0.054,0.95 0.11,1.899 0.164,2.849c0.058,1.038 0.116,2.077 0.174,3.115c0.053,0.945 0.108,1.89 0.155,2.835c0.005,0.111 0.044,0.178 0.128,0.244c0.974,0.756 1.945,1.515 2.917,2.274c1.847,1.442 3.694,2.883 5.541,4.326c0.07,0.055 0.118,0.078 0.203,0.011c2.806,-2.209 5.613,-4.417 8.423,-6.622c0.079,-0.061 0.111,-0.127 0.114,-0.223c0.012,-0.398 0.028,-0.796 0.045,-1.194c0.039,-0.969 0.078,-1.938 0.119,-2.908c0.057,-1.343 0.117,-2.687 0.173,-4.03c0.054,-1.297 0.102,-2.594 0.164,-3.89c0.007,-0.157 -0.039,-0.22 -0.176,-0.275zm-1.435,10.583c-0.018,0.327 -0.026,0.655 -0.051,0.982c-0.006,0.074 -0.046,0.166 -0.102,0.21c-2.414,1.905 -4.832,3.804 -7.248,5.706c-0.07,0.055 -0.117,0.08 -0.202,0.013c-2.429,-1.909 -4.859,-3.814 -7.292,-5.717c-0.088,-0.069 -0.115,-0.142 -0.12,-0.248c-0.054,-0.959 -0.114,-1.918 -0.171,-2.877c-0.053,-0.907 -0.104,-1.814 -0.157,-2.722c-0.053,-0.921 -0.109,-1.842 -0.164,-2.764c-0.041,-0.687 -0.083,-1.375 -0.125,-2.062c-0.005,-0.078 -0.003,-0.138 0.089,-0.179c0.579,-0.253 1.155,-0.514 1.732,-0.773c0.016,-0.007 0.035,-0.009 0.07,-0.018c0.028,0.407 0.056,0.8 0.081,1.192c0.058,0.902 0.114,1.805 0.171,2.707c0.065,1.047 0.13,2.095 0.196,3.142c0.06,0.954 0.119,1.908 0.185,2.861c0.003,0.053 0.055,0.116 0.101,0.151c0.782,0.598 1.566,1.193 2.35,1.788c0.896,0.681 1.791,1.361 2.687,2.041c0.165,0.125 0.525,0.133 0.682,0.013c1.737,-1.316 3.473,-2.634 5.211,-3.948c0.075,-0.057 0.11,-0.116 0.116,-0.208c0.039,-0.697 0.082,-1.394 0.124,-2.091c0.042,-0.701 0.084,-1.403 0.126,-2.104c0.055,-0.917 0.109,-1.833 0.165,-2.75c0.054,-0.903 0.11,-1.805 0.165,-2.708c0.003,-0.035 0.013,-0.07 0.023,-0.122c0.259,0.126 0.506,0.246 0.753,0.366c0.337,0.164 0.673,0.33 1.012,0.489c0.086,0.04 0.11,0.089 0.105,0.184c-0.092,1.694 -0.178,3.388 -0.27,5.081c-0.078,1.455 -0.162,2.91 -0.242,4.365zm-2.677,-4.751c-0.079,1.3 -0.163,2.599 -0.241,3.899c-0.006,0.093 -0.039,0.151 -0.113,0.208c-1.477,1.116 -2.952,2.234 -4.425,3.354c-0.081,0.062 -0.13,0.054 -0.205,-0.005c-1.511,-1.172 -3.024,-2.341 -4.535,-3.512c-0.036,-0.028 -0.073,-0.079 -0.076,-0.121c-0.066,-0.827 -0.126,-1.653 -0.187,-2.48c-0.057,-0.757 -0.113,-1.514 -0.169,-2.27c-0.066,-0.897 -0.131,-1.794 -0.197,-2.691c-0.056,-0.747 -0.127,-1.494 -0.163,-2.242c-0.025,-0.546 -0.005,-1.094 -0.005,-1.664c0.066,0 0.122,0 0.177,0c0.75,0 1.5,-0.002 2.25,0.002c0.124,0.001 0.223,-0.032 0.322,-0.106c0.663,-0.498 1.33,-0.991 1.996,-1.486c0.028,-0.021 0.06,-0.038 0.116,-0.072c0,0.079 0,0.133 0,0.187c0,2.909 0,5.819 0,8.729c0,0.196 0,0.196 0.197,0.196c0.309,0 0.618,0 0.942,0c0,-3.036 0,-6.06 0,-9.123c0.067,0.046 0.107,0.071 0.144,0.099c0.655,0.494 1.308,0.991 1.967,1.479c0.075,0.056 0.185,0.09 0.279,0.091c0.704,0.008 1.407,0.007 2.11,0.001c0.125,-0.001 0.154,0.036 0.157,0.159c0.025,1.35 -0.05,2.697 -0.141,4.043c-0.075,1.108 -0.132,2.217 -0.2,3.325zm-18.064,-12.849c0.009,-0.009 0.018,-0.018 0.026,-0.026c1.411,1.118 2.821,2.237 4.221,3.347c-0.3,0.298 -0.594,0.59 -0.901,0.895c-1.108,-1.397 -2.227,-2.807 -3.346,-4.216zm4.249,23.492c-1.404,1.114 -2.818,2.236 -4.233,3.359c-0.008,-0.009 -0.016,-0.017 -0.023,-0.025c1.122,-1.414 2.244,-2.828 3.36,-4.235c0.302,0.304 0.594,0.598 0.896,0.901zm22.274,3.336c-0.007,0.008 -0.015,0.017 -0.022,0.025c-1.416,-1.124 -2.832,-2.247 -4.241,-3.365c0.304,-0.301 0.599,-0.593 0.903,-0.894c1.114,1.404 2.237,2.819 3.36,4.234z"/>
 </g>

</svg>